<svg width="512" height="512" xmlns="http://www.w3.org/2000/svg">

 <g>
  <title>background</title>
  <rect fill="none" id="canvas_background" height="402" width="582" y="-1" x="-1"/>
 </g>
 <g>
  <title>Layer 1</title>
  <circle r="256" id="Background_1_" fill="#DDC646" cy="256" cx="256"/>
  <ellipse id="svg_1" ry="4.281" rx="112.683" opacity="0.2" cy="472.382" cx="256"/>
  <path id="svg_2" opacity="0.1" d="m339.357,75.508l-38.17,-31.274l-6.152,23.31l-28.977,7.965l-34.666,-30.133l-17.865,31.447l-59.083,115.624l23.347,36.281l-16.025,91.917l11.565,12.725l-2.983,32.545l28.765,22.136l-6.634,35.297l19.571,19.521l9.898,11.689l16.127,13.746l96.526,1.286l61.403,0.749c45.447,-29.747 80.857,-73.548 100.051,-125.239l-144.727,-272.801l-11.971,3.209z"/>
  <path id="svg_3" fill="#E15353" d="m208.324,423.345c0,0 -1.947,1.416 -0.392,6.242c0.697,2.164 3.074,5.478 3.074,5.478c0.825,1.64 1.353,3.096 1.045,7.802c-0.217,3.314 2.521,-4.706 4.734,-7.131c2.097,-2.297 1.538,4.923 1.291,10.517c-0.156,3.543 3.859,-6.825 4.12,-9.037c0.615,-5.226 1.168,5.167 -0.246,17.341c-0.585,5.036 4.365,-3.013 7.563,-22.932c0,0 1.537,0.921 1.167,10.267c-0.4,10.14 7.132,-5.782 7.397,-9.967c0.148,-2.347 0.267,-1.037 0.267,-3.378c0,-1.41 -0.114,0.974 -0.624,-5.201l-29.396,0l0,-0.001z"/>
  <path id="svg_4" fill="#E15353" d="m305.217,423.345l-30.149,0c0,0 -1.323,1.348 0,6.242c1.416,5.226 2.6,4.531 3.075,5.478c0.824,1.64 1.353,3.096 1.044,7.802c-0.215,3.314 2.521,-4.706 4.734,-7.131c2.099,-2.297 1.538,4.923 1.291,10.517c-0.156,3.543 3.86,-6.825 4.119,-9.037c0.615,-5.226 1.17,5.167 -0.245,17.341c-0.586,5.036 4.365,-3.013 7.563,-22.932c0,0 1.537,0.921 1.167,10.267c-0.4,10.14 7.133,-5.782 7.397,-9.967c0.147,-2.347 0.267,-1.037 0.267,-3.378c0,-1.411 0.249,0.973 -0.263,-5.202z"/>
  <path id="svg_5" fill="#E8B73C" d="m211.849,422.457c0,0 -2.488,4.978 -0.439,8.124c0,0 2.745,3.623 2.196,5.05c0,0 3.403,-8.453 5.709,-7.025c0,0 0.512,7.345 0.293,8.661c0,0 3.33,-12.138 4.537,-9.393c1.208,2.744 0.586,14.345 0.586,14.345s4.245,-18.151 5.27,-16.248c1.794,3.333 2.927,11.296 2.927,11.296s3.952,-9.21 1.317,-15.798l-22.396,0.988z"/>
  <path id="svg_6" fill="#E8B73C" d="m302.676,422.625c0,0 2.308,4.662 -0.188,9.272c0,0 -2.743,3.622 -2.195,5.05c0,0 -1.828,-10.941 -4.133,-9.515c0,0 -4.758,16.688 -4.538,18.005c0,0 1.062,-22.213 -0.146,-19.468c-1.209,2.744 -4.393,13.712 -4.393,13.712s-1.024,-15.03 -2.05,-13.127c-1.794,3.333 -3.697,8.876 -3.697,8.876s-4.163,-5.933 -2.994,-13.234l24.334,0.429z"/>
  <path id="svg_7" fill="#B5B8C4" d="m238.077,358.403c-3.657,-3.438 -8.024,-5.546 -13.284,-5.546c0,0 -32.313,-5.914 -32.313,70.488l30.819,0c-1.911,-6.48 -3.026,-14.003 -3.026,-22.061c0,-21.303 7.666,-39.027 17.804,-42.881z"/>
  <path id="svg_8" fill="#20706D" d="m238.077,358.403c-10.137,3.854 -17.804,21.578 -17.804,42.882c0,8.058 1.115,15.58 3.026,22.061l33.114,0c0.001,-0.001 -0.682,-48.343 -18.336,-64.943z"/>
  <path id="svg_9" fill="#9DA0B2" d="m306.024,360.64c-4.048,-4.76 -9.088,-7.783 -15.407,-7.783c0,0 -32.313,-5.914 -32.313,70.488l31.798,0c-1.504,-5.918 -2.37,-12.59 -2.37,-19.677c-0.001,-21.645 7.915,-39.563 18.292,-43.028z"/>
  <path id="svg_10" fill="#20706D" d="m306.024,360.64c-10.377,3.465 -18.293,21.383 -18.293,43.028c0,7.087 0.866,13.759 2.37,19.677l32.137,0c0,0 -0.626,-44.391 -16.214,-62.705z"/>
  <path id="svg_11" opacity="0.1" fill="#131313" d="m221.892,438.543c0.167,-0.559 0.281,-1.023 0.319,-1.328c0.646,-5.226 1.229,5.167 -0.259,17.341c-0.615,5.036 4.591,-3.013 7.953,-22.932c0,0 1.617,0.921 1.229,10.267c-0.421,10.14 7.5,-5.782 7.779,-9.967c0.156,-2.347 0.281,-1.037 0.281,-3.378c0,-1.41 -0.12,0.974 -0.657,-5.201l18.667,0c0,0 -0.718,-48.342 -19.284,-64.942c-3.846,-3.438 -8.439,-5.546 -13.97,-5.546l-2.057,0l0,85.686l-0.001,0z"/>
  <path id="svg_12" opacity="0.1" fill="#131313" d="m306.024,360.64c-4.048,-4.76 -9.088,-7.783 -15.407,-7.783c0,0 -0.456,-0.082 -1.252,-0.102l0,84.207c0.557,-4.251 1.033,4.198 0,14.962l0,4.08c1.096,-0.22 4.742,-8.543 7.284,-24.38c0,0 1.537,0.921 1.167,10.267c-0.4,10.14 7.133,-5.782 7.397,-9.967c0.147,-2.347 0.267,-1.037 0.267,-3.378c0,-1.41 0.249,0.974 -0.263,-5.201l17.021,0c0,0 -0.626,-44.391 -16.214,-62.705z"/>
  <polygon id="svg_13" points="356.599,353.595 344.093,356.051 335.949,365.849 329.749,354.713 317.914,349.993    326.587,340.659 327.417,327.942 338.977,333.308 351.328,330.168 349.8,342.818  " fill="#9DA0B2"/>
  <polygon id="svg_14" points="347.111,348.832 340.856,350.06 336.785,354.96 333.684,349.394 327.766,347.032 332.104,342.365    332.518,336.007 338.297,338.689 344.476,337.12 343.71,343.446  " fill="#20706D"/>
  <polygon id="svg_15" points="190.981,353.631 178.481,356.104 170.349,365.913 164.134,354.789 152.292,350.085    160.952,340.737 161.767,328.02 173.333,333.368 185.677,330.212 184.167,342.865  " fill="#B5B8C4"/>
  <polygon id="svg_16" points="181.293,350.279 175.041,351.515 170.975,356.42 167.867,350.859 161.946,348.506 166.277,343.831    166.685,337.473 172.467,340.147 178.64,338.57 177.883,344.896  " fill="#20706D"/>
  <path id="svg_17" fill="#20706D" d="m162.034,291.231c-0.119,0 -0.234,-0.021 -0.353,-0.023l0.086,29.436l11.565,5.347l12.345,-3.156l-0.305,-45.905c-5.794,8.718 -14.075,14.235 -23.338,14.301z"/>
  <path id="svg_18" fill="#B5B8C4" d="m161.181,221.257l0.5,69.95c0.119,0.002 0.234,0.023 0.353,0.023c9.263,-0.066 17.544,-5.583 23.338,-14.303l-0.399,-55.841l-23.792,0.171z"/>
  <path id="svg_19" fill="#20706D" d="m351.328,322.792l-0.072,-33.561c-0.274,0.013 -0.544,0.063 -0.82,0.061c-9.021,0.045 -17.183,-5.079 -23.05,-13.335l0.032,44.608l11.56,5.366l12.35,-3.139z"/>
  <path id="svg_20" fill="#9DA0B2" d="m350.435,289.292c0.276,0.003 0.546,-0.048 0.82,-0.061l-0.388,-67.634l-23.791,0.137l0.309,54.222c5.867,8.256 14.029,13.38 23.05,13.336z"/>
  <path id="svg_21" fill="#26807E" d="m295.018,242.299c9.739,0 19.158,1.084 28.114,3.063l0,-6.967c0,-13.584 -5.091,-24.598 -11.361,-24.598l-110.796,0c-6.275,0 -11.363,11.014 -11.363,24.598l0,84.04c0,0.85 0.021,1.692 0.06,2.521c1.251,-45.817 47.918,-82.657 105.346,-82.657z"/>
  <path id="svg_22" fill="#45B5E7" d="m201.19,347.031l110.795,0c6.271,0 11.361,-11.014 11.361,-24.596l0,-77.072c-8.955,-1.979 -18.376,-3.063 -28.115,-3.063c-57.426,0 -104.092,36.84 -105.344,82.657c0.584,12.396 5.423,22.074 11.303,22.074z"/>
  <rect id="svg_23" y="228.726" x="204.083" width="18.889" height="9.758" fill="#3B3D48"/>
  <rect id="svg_24" y="228.726" x="290.254" width="18.89" height="9.758" fill="#3B3D48"/>
  <rect id="svg_25" y="228.726" x="247.17" width="18.888" height="9.758" fill="#3B3D48"/>
  <rect id="svg_26" y="230.108" x="228.55" width="13.544" height="6.994" fill="#46B978"/>
  <rect id="svg_27" y="230.108" x="271.867" width="13.541" height="6.994" fill="#46B978"/>
  <rect id="svg_28" y="295.833" x="204.083" width="18.889" height="44.06" fill="#b77394"/>
  <rect id="svg_29" y="247.401" x="290.254" width="18.89" height="92.491" fill="#46B978"/>
  <rect id="svg_30" y="264.989" x="247.17" width="18.888" height="74.903" fill="#cccc76"/>
  <rect id="svg_31" y="280.415" x="228.55" width="13.544" height="58.099" fill="#c9905a"/>
  <rect id="svg_32" y="255.516" x="271.867" width="13.541" height="82.997" fill="#7a56a0"/>
  <path id="svg_33" opacity="0.1" fill="#131313" d="m312.53207,347.031c6.271,0 11.361,-11.014 11.361,-24.596l0,-77.072c-0.071,-0.016 -0.144,-0.029 -0.215,-0.044l0,-6.923c0,-13.584 -5.091,-24.598 -11.361,-24.598l-56.389,0l0,133.233l56.604,0z"/>
  <path id="svg_34" fill="#C6C9D2" d="m212.307,45.375c-2.451,2.243 -4.135,5.342 -4.517,8.906l-1.377,12.867l27.392,16.896l2.09,-26.754c0.042,-0.391 0.056,-0.775 0.067,-1.16c-10.195,-2.269 -18.608,-6.167 -23.655,-10.755z"/>
  <path id="svg_35" fill="#d34234" d="m223.348,41.732c-4.198,-0.45 -8.154,0.998 -11.041,3.642c5.047,4.589 13.46,8.486 23.656,10.756c0.182,-7.283 -5.243,-13.609 -12.615,-14.398z"/>
  <path id="svg_36" fill="#d34234" d="m293.59,42.592c-4.211,0.278 -7.859,2.383 -10.252,5.483c5.763,3.654 14.721,6.049 25.152,6.534c-1.068,-7.206 -7.498,-12.506 -14.9,-12.017z"/>
  <path id="svg_37" fill="#AEB2C1" d="m283.338,48.075c-2.025,2.629 -3.155,5.973 -2.92,9.55l1.06,22.569l28.204,-1.861l-1.058,-22.57c-0.026,-0.39 -0.079,-0.772 -0.134,-1.153c-10.431,-0.485 -19.389,-2.881 -25.152,-6.535z"/>
  <path id="svg_38" fill="#1EA4D3" d="m193.78,66.767l-22.196,-0.17c-9.608,-0.074 -17.486,11.654 -17.598,26.194l-0.69,89.947c-0.112,14.54 7.586,26.387 17.193,26.46l169.607,1.302c9.608,0.073 17.485,-11.654 17.6,-26.194l0.025,-3.316c-65.674,-20.803 -122.579,-61.175 -163.941,-114.223z"/>
  <path id="svg_39" fill="#2b8481" d="m341.73907,67.897l-147.413,-1.13c41.362,53.048 98.267,93.419 163.941,114.224l0.663,-86.632c0.112,-14.541 -7.587,-26.387 -17.191,-26.462z"/>
  <polygon id="svg_40" points="205.064,129.379 192.69,107.561 205.397,85.936 230.482,86.128 242.856,107.946 230.149,129.571     " fill="#9A653C"/>
  <path id="svg_41" fill="#9DA0B2" d="m342.188,76.821c-1.861,-0.014 -3.381,1.482 -3.393,3.343c-0.016,1.86 1.482,3.378 3.34,3.393c1.864,0.014 3.382,-1.481 3.397,-3.342c0.014,-1.86 -1.483,-3.38 -3.344,-3.394z"/>
  <circle id="svg_42" r="3.368" fill="#9DA0B2" cy="78.876" cx="170.929"/>
  <polygon id="svg_43" points="219.03,86.041 218.696,129.484 230.149,129.571 242.856,107.946 230.482,86.128  " opacity="0.1" fill="#131313"/>
  <rect id="svg_44" y="138.191" x="177.792" width="156.811" height="54.254" fill="#603913"/>
  <rect id="svg_45" y="140.09" x="179.36" width="153.675" height="50.455" fill="#9A653C"/>
  <path id="svg_46" fill="#58c991" d="m223.57807,98.793c-1.523,-0.913 -3.286,-1.47 -5.191,-1.47c-5.605,0 -10.151,4.544 -10.151,10.15c0,2.363 0.842,4.51 2.195,6.235c3.365,-5.804 7.842,-10.862 13.147,-14.915z"/>
  <path id="svg_47" fill="#ECE70D" d="m217.84,117.625c5.607,0 10.151,-4.544 10.151,-10.152c0,-3.7 -2,-6.907 -4.96,-8.68c-5.305,4.053 -9.781,9.111 -13.147,14.915c1.859,2.367 4.713,3.917 7.956,3.917z"/>
  <polygon id="svg_48" points="288.126,129.379 275.752,107.561 288.461,85.936 313.544,86.128 325.917,107.946 313.212,129.571     " fill="#9A653C"/>
  <path id="svg_49" fill="#58c991" d="m306.094,98.793c-1.522,-0.913 -3.285,-1.47 -5.191,-1.47c-5.604,0 -10.151,4.544 -10.151,10.15c0,2.363 0.842,4.51 2.196,6.235c3.365,-5.804 7.843,-10.862 13.146,-14.915z"/>
  <path id="svg_50" fill="#ECE70D" d="m300.35693,117.625c5.607,0 10.152,-4.544 10.152,-10.152c0,-3.7 -2,-6.907 -4.961,-8.68c-5.304,4.053 -9.781,9.111 -13.146,14.915c1.857,2.367 4.711,3.917 7.955,3.917z"/>
  <path id="svg_51" fill="#E4E6F4" d="m191.004,151.301l0,28.178l132.708,0l0,-28.178l-132.708,0zm129.757,8.407l-18.685,0l0,-5.456l18.685,0l0,5.456zm-105.169,2.951l18.654,0l0,5.462l-18.654,0l0,-5.462zm-2.951,5.462l-18.686,0l0,-5.462l18.686,0l0,5.462zm64.878,-8.413l-18.685,0l0,-5.456l18.685,0l0,5.456zm2.951,-5.456l18.654,0l0,5.456l-18.654,0l0,-5.456zm-21.636,8.407l18.685,0l0,5.462l-18.685,0l0,-5.462zm-2.952,5.462l-18.685,0l0,-5.462l18.685,0l0,5.462zm0,-8.413l-18.685,0l0,-5.456l18.685,0l0,5.456zm-21.636,0l-18.654,0l0,-5.456l18.654,0l0,5.456zm0,11.364l0,5.456l-18.654,0l0,-5.456l18.654,0zm2.951,0l18.685,0l0,5.456l-18.685,0l0,-5.456zm21.637,0l18.685,0l0,5.456l-18.685,0l0,-5.456zm21.636,0l18.654,0l0,5.456l-18.654,0l0,-5.456zm0,-2.951l0,-5.462l18.654,0l0,5.462l-18.654,0zm21.607,-5.462l18.685,0l0,5.462l-18.685,0l0,-5.462zm-89.436,-8.407l0,5.456l-18.686,0l0,-5.456l18.686,0zm-18.686,16.82l18.686,0l0,5.456l-18.686,0l0,-5.456zm108.122,5.456l0,-5.456l18.685,0l0,5.456l-18.685,0z"/>
  <polygon id="svg_52" points="301.523,86.041 301.187,129.484 312.64,129.571 325.347,107.946 312.974,86.128  " opacity="0.1" fill="#131313"/>
  <path id="svg_53" opacity="0.1" fill="#131313" d="m340.94993,68.11907l-85.02,-0.651l-1.094,142.602l85.018,0.653c9.608,0.073 17.485,-11.654 17.599,-26.194l0.025,-3.316l0.664,-86.632c0.111,-14.541 -7.587,-26.388 -17.192,-26.462z"/>
 </g>
</svg>