<?xml version="1.0" ?><!DOCTYPE svg  PUBLIC '-//W3C//DTD SVG 1.1//EN'  'http://www.w3.org/Graphics/SVG/1.1/DTD/svg11.dtd'><svg enable-background="new 0 0 512 512" height="512px" version="1.1" viewBox="0 0 512 512" width="512px" xml:space="preserve" xmlns="http://www.w3.org/2000/svg" xmlns:xlink="http://www.w3.org/1999/xlink"><g id="Background"><circle cx="256" cy="256" fill="#DDC646" id="Background_1_" r="256"/></g><g id="Shadow"><ellipse cx="256" cy="472.382" opacity="0.2" rx="112.683" ry="4.281"/><path d="M339.357,75.508l-38.17-31.274l-6.152,23.31l-28.977,7.965l-34.666-30.133l-17.865,31.447l-59.083,115.624   l23.347,36.281l-16.025,91.917l11.565,12.725l-2.983,32.545l28.765,22.136l-6.634,35.297l19.571,19.521l9.898,11.689l16.127,13.746   l96.526,1.286l61.403,0.749c45.447-29.747,80.857-73.548,100.051-125.239L351.328,72.299L339.357,75.508z" opacity="0.1"/></g><g id="Flame"><path d="M208.324,423.345c0,0-1.947,1.416-0.392,6.242c0.697,2.164,3.074,5.478,3.074,5.478   c0.825,1.64,1.353,3.096,1.045,7.802c-0.217,3.314,2.521-4.706,4.734-7.131c2.097-2.297,1.538,4.923,1.291,10.517   c-0.156,3.543,3.859-6.825,4.12-9.037c0.615-5.226,1.168,5.167-0.246,17.341c-0.585,5.036,4.365-3.013,7.563-22.932   c0,0,1.537,0.921,1.167,10.267c-0.4,10.14,7.132-5.782,7.397-9.967c0.148-2.347,0.267-1.037,0.267-3.378   c0-1.41-0.114,0.974-0.624-5.201H208.324z" fill="#E15353"/><path d="M305.217,423.345h-30.149c0,0-1.323,1.348,0,6.242c1.416,5.226,2.6,4.531,3.075,5.478   c0.824,1.64,1.353,3.096,1.044,7.802c-0.215,3.314,2.521-4.706,4.734-7.131c2.099-2.297,1.538,4.923,1.291,10.517   c-0.156,3.543,3.86-6.825,4.119-9.037c0.615-5.226,1.17,5.167-0.245,17.341c-0.586,5.036,4.365-3.013,7.563-22.932   c0,0,1.537,0.921,1.167,10.267c-0.4,10.14,7.133-5.782,7.397-9.967c0.147-2.347,0.267-1.037,0.267-3.378   C305.48,427.136,305.729,429.52,305.217,423.345z" fill="#E15353"/><path d="M211.849,422.457c0,0-2.488,4.978-0.439,8.124c0,0,2.745,3.623,2.196,5.05c0,0,3.403-8.453,5.709-7.025   c0,0,0.512,7.345,0.293,8.661c0,0,3.33-12.138,4.537-9.393c1.208,2.744,0.586,14.345,0.586,14.345s4.245-18.151,5.27-16.248   c1.794,3.333,2.927,11.296,2.927,11.296s3.952-9.21,1.317-15.798L211.849,422.457z" fill="#E8B73C"/><path d="M302.676,422.625c0,0,2.308,4.662-0.188,9.272c0,0-2.743,3.622-2.195,5.05c0,0-1.828-10.941-4.133-9.515   c0,0-4.758,16.688-4.538,18.005c0,0,1.062-22.213-0.146-19.468c-1.209,2.744-4.393,13.712-4.393,13.712s-1.024-15.03-2.05-13.127   c-1.794,3.333-3.697,8.876-3.697,8.876s-4.163-5.933-2.994-13.234L302.676,422.625z" fill="#E8B73C"/></g><g id="Foot"><path d="M238.077,358.403c-3.657-3.438-8.024-5.546-13.284-5.546c0,0-32.313-5.914-32.313,70.488h30.819   c-1.911-6.48-3.026-14.003-3.026-22.061C220.273,379.981,227.939,362.257,238.077,358.403z" fill="#B5B8C4"/><path d="M238.077,358.403c-10.137,3.854-17.804,21.578-17.804,42.882c0,8.058,1.115,15.58,3.026,22.061h33.114   C256.414,423.345,255.731,375.003,238.077,358.403z" fill="#20706D"/><path d="M306.024,360.64c-4.048-4.76-9.088-7.783-15.407-7.783c0,0-32.313-5.914-32.313,70.488h31.798   c-1.504-5.918-2.37-12.59-2.37-19.677C287.731,382.023,295.647,364.105,306.024,360.64z" fill="#9DA0B2"/><path d="M306.024,360.64c-10.377,3.465-18.293,21.383-18.293,43.028c0,7.087,0.866,13.759,2.37,19.677h32.137   C322.238,423.345,321.612,378.954,306.024,360.64z" fill="#20706D"/><path d="M221.892,438.543c0.167-0.559,0.281-1.023,0.319-1.328c0.646-5.226,1.229,5.167-0.259,17.341   c-0.615,5.036,4.591-3.013,7.953-22.932c0,0,1.617,0.921,1.229,10.267c-0.421,10.14,7.5-5.782,7.779-9.967   c0.156-2.347,0.281-1.037,0.281-3.378c0-1.41-0.12,0.974-0.657-5.201h18.667c0,0-0.718-48.342-19.284-64.942   c-3.846-3.438-8.439-5.546-13.97-5.546h-2.057V438.543z" fill="#131313" opacity="0.1"/><path d="M306.024,360.64c-4.048-4.76-9.088-7.783-15.407-7.783c0,0-0.456-0.082-1.252-0.102v84.207   c0.557-4.251,1.033,4.198,0,14.962v4.08c1.096-0.22,4.742-8.543,7.284-24.38c0,0,1.537,0.921,1.167,10.267   c-0.4,10.14,7.133-5.782,7.397-9.967c0.147-2.347,0.267-1.037,0.267-3.378c0-1.41,0.249,0.974-0.263-5.201h17.021   C322.238,423.345,321.612,378.954,306.024,360.64z" fill="#131313" opacity="0.1"/></g><g id="Hand"><polygon fill="#9DA0B2" points="356.599,353.595 344.093,356.051 335.949,365.849 329.749,354.713 317.914,349.993    326.587,340.659 327.417,327.942 338.977,333.308 351.328,330.168 349.8,342.818  "/><polygon fill="#20706D" points="347.111,348.832 340.856,350.06 336.785,354.96 333.684,349.394 327.766,347.032 332.104,342.365    332.518,336.007 338.297,338.689 344.476,337.12 343.71,343.446  "/><polygon fill="#B5B8C4" points="190.981,353.631 178.481,356.104 170.349,365.913 164.134,354.789 152.292,350.085    160.952,340.737 161.767,328.02 173.333,333.368 185.677,330.212 184.167,342.865  "/><polygon fill="#20706D" points="181.293,350.279 175.041,351.515 170.975,356.42 167.867,350.859 161.946,348.506 166.277,343.831    166.685,337.473 172.467,340.147 178.64,338.57 177.883,344.896  "/><path d="M162.034,291.231c-0.119,0-0.234-0.021-0.353-0.023l0.086,29.436l11.565,5.347l12.345-3.156l-0.305-45.905   C179.578,285.648,171.297,291.165,162.034,291.231z" fill="#20706D"/><path d="M161.181,221.257l0.5,69.95c0.119,0.002,0.234,0.023,0.353,0.023c9.263-0.066,17.544-5.583,23.338-14.303   l-0.399-55.841L161.181,221.257z" fill="#B5B8C4"/><path d="M351.328,322.792l-0.072-33.561c-0.274,0.013-0.544,0.063-0.82,0.061   c-9.021,0.045-17.183-5.079-23.05-13.335l0.032,44.608l11.56,5.366L351.328,322.792z" fill="#20706D"/><path d="M350.435,289.292c0.276,0.003,0.546-0.048,0.82-0.061l-0.388-67.634l-23.791,0.137l0.309,54.222   C333.252,284.212,341.414,289.336,350.435,289.292z" fill="#9DA0B2"/></g><g id="Body"><path d="M295.018,242.299c9.739,0,19.158,1.084,28.114,3.063v-6.967c0-13.584-5.091-24.598-11.361-24.598H200.975   c-6.275,0-11.363,11.014-11.363,24.598v84.04c0,0.85,0.021,1.692,0.06,2.521C190.923,279.139,237.59,242.299,295.018,242.299z" fill="#26807E"/><path d="M201.19,347.031h110.795c6.271,0,11.361-11.014,11.361-24.596v-77.072   c-8.955-1.979-18.376-3.063-28.115-3.063c-57.426,0-104.092,36.84-105.344,82.657C190.471,337.353,195.31,347.031,201.19,347.031z" fill="#45B5E7"/><rect fill="#3B3D48" height="9.758" width="18.889" x="204.083" y="228.726"/><rect fill="#3B3D48" height="9.758" width="18.89" x="290.254" y="228.726"/><rect fill="#3B3D48" height="9.758" width="18.888" x="247.17" y="228.726"/><rect fill="#46B978" height="6.994" width="13.544" x="228.55" y="230.108"/><rect fill="#46B978" height="6.994" width="13.541" x="271.867" y="230.108"/><rect fill="#46B978" height="44.06" width="18.889" x="204.083" y="295.833"/><rect fill="#46B978" height="92.491" width="18.89" x="290.254" y="247.401"/><rect fill="#46B978" height="74.903" width="18.888" x="247.17" y="264.989"/><rect fill="#EC5C5B" height="58.099" width="13.544" x="228.55" y="280.415"/><rect fill="#EC5C5B" height="82.997" width="13.541" x="271.867" y="255.516"/><path d="M311.986,347.031c6.271,0,11.361-11.014,11.361-24.596v-77.072   c-0.071-0.016-0.144-0.029-0.215-0.044v-6.923c0-13.584-5.091-24.598-11.361-24.598h-56.389v133.233H311.986z" fill="#131313" opacity="0.1"/></g><g id="Head"><path d="M212.307,45.375c-2.451,2.243-4.135,5.342-4.517,8.906l-1.377,12.867l27.392,16.896l2.09-26.754   c0.042-0.391,0.056-0.775,0.067-1.16C225.767,53.861,217.354,49.963,212.307,45.375z" fill="#C6C9D2"/><path d="M223.348,41.732c-4.198-0.45-8.154,0.998-11.041,3.642c5.047,4.589,13.46,8.486,23.656,10.756   C236.145,48.847,230.72,42.521,223.348,41.732z" fill="#349AD6"/><path d="M293.59,42.592c-4.211,0.278-7.859,2.383-10.252,5.483c5.763,3.654,14.721,6.049,25.152,6.534   C307.422,47.403,300.992,42.103,293.59,42.592z" fill="#309999"/><path d="M283.338,48.075c-2.025,2.629-3.155,5.973-2.92,9.55l1.06,22.569l28.204-1.861l-1.058-22.57   c-0.026-0.39-0.079-0.772-0.134-1.153C298.059,54.125,289.101,51.729,283.338,48.075z" fill="#AEB2C1"/><path d="M193.78,66.767l-22.196-0.17c-9.608-0.074-17.486,11.654-17.598,26.194l-0.69,89.947   c-0.112,14.54,7.586,26.387,17.193,26.46l169.607,1.302c9.608,0.073,17.485-11.654,17.6-26.194l0.025-3.316   C292.047,160.187,235.142,119.815,193.78,66.767z" fill="#1EA4D3"/><path d="M341.193,67.897l-147.413-1.13c41.362,53.048,98.267,93.419,163.941,114.224l0.663-86.632   C358.496,79.818,350.797,67.972,341.193,67.897z" fill="#26807E"/><polygon fill="#9A653C" points="205.064,129.379 192.69,107.561 205.397,85.936 230.482,86.128 242.856,107.946 230.149,129.571     "/><path d="M342.188,76.821c-1.861-0.014-3.381,1.482-3.393,3.343c-0.016,1.86,1.482,3.378,3.34,3.393   c1.864,0.014,3.382-1.481,3.397-3.342C345.546,78.355,344.049,76.835,342.188,76.821z" fill="#9DA0B2"/><circle cx="170.929" cy="78.876" fill="#9DA0B2" r="3.368"/><polygon fill="#131313" opacity="0.1" points="219.03,86.041 218.696,129.484 230.149,129.571 242.856,107.946 230.482,86.128  "/><rect fill="#603913" height="54.254" width="156.811" x="177.792" y="138.191"/><rect fill="#9A653C" height="50.455" width="153.675" x="179.36" y="140.09"/><path d="M223.032,98.793c-1.523-0.913-3.286-1.47-5.191-1.47c-5.605,0-10.151,4.544-10.151,10.15   c0,2.363,0.842,4.51,2.195,6.235C213.25,107.904,217.727,102.846,223.032,98.793z" fill="#ED1C24"/><path d="M217.84,117.625c5.607,0,10.151-4.544,10.151-10.152c0-3.7-2-6.907-4.96-8.68   c-5.305,4.053-9.781,9.111-13.147,14.915C211.743,116.075,214.597,117.625,217.84,117.625z" fill="#ECE70D"/><polygon fill="#9A653C" points="288.126,129.379 275.752,107.561 288.461,85.936 313.544,86.128 325.917,107.946 313.212,129.571     "/><path d="M306.094,98.793c-1.522-0.913-3.285-1.47-5.191-1.47c-5.604,0-10.151,4.544-10.151,10.15   c0,2.363,0.842,4.51,2.196,6.235C296.313,107.904,300.791,102.846,306.094,98.793z" fill="#ED1C24"/><path d="M300.903,117.625c5.607,0,10.152-4.544,10.152-10.152c0-3.7-2-6.907-4.961-8.68   c-5.304,4.053-9.781,9.111-13.146,14.915C294.805,116.075,297.659,117.625,300.903,117.625z" fill="#ECE70D"/><path d="M191.004,151.301v28.178h132.708v-28.178H191.004z M320.761,159.708h-18.685v-5.456h18.685V159.708z    M215.592,162.659h18.654v5.462h-18.654V162.659z M212.641,168.121h-18.686v-5.462h18.686V168.121z M277.519,159.708h-18.685   v-5.456h18.685V159.708z M280.47,154.252h18.654v5.456H280.47V154.252z M258.834,162.659h18.685v5.462h-18.685V162.659z    M255.882,168.121h-18.685v-5.462h18.685V168.121z M255.882,159.708h-18.685v-5.456h18.685V159.708z M234.246,159.708h-18.654   v-5.456h18.654V159.708z M234.246,171.072v5.456h-18.654v-5.456H234.246z M237.197,171.072h18.685v5.456h-18.685V171.072z    M258.834,171.072h18.685v5.456h-18.685V171.072z M280.47,171.072h18.654v5.456H280.47V171.072z M280.47,168.121v-5.462h18.654   v5.462H280.47z M302.077,162.659h18.685v5.462h-18.685V162.659z M212.641,154.252v5.456h-18.686v-5.456H212.641z M193.955,171.072   h18.686v5.456h-18.686V171.072z M302.077,176.528v-5.456h18.685v5.456H302.077z" fill="#E4E6F4"/><polygon fill="#131313" opacity="0.1" points="301.523,86.041 301.187,129.484 312.64,129.571 325.347,107.946 312.974,86.128  "/><path d="M341.496,67.573l-85.02-0.651l-1.094,142.602l85.018,0.653   c9.608,0.073,17.485-11.654,17.599-26.194l0.025-3.316l0.664-86.632C358.799,79.494,351.101,67.647,341.496,67.573z" fill="#131313" opacity="0.1"/></g></svg>